<?xml version="1.0" standalone="no"?>
<!DOCTYPE svg PUBLIC "-//W3C//DTD SVG 20010904//EN"
 "http://www.w3.org/TR/2001/REC-SVG-20010904/DTD/svg10.dtd">
<svg version="1.0" xmlns="http://www.w3.org/2000/svg"
 width="550.000000pt" height="550.000000pt" viewBox="0 0 550.000000 550.000000"
 preserveAspectRatio="xMidYMid meet">
<metadata>
Created by potrace 1.14, written by Peter Selinger 2001-2017
</metadata>
<g transform="translate(0.000000,550.000000) scale(0.100000,-0.100000)"
fill="#000000" stroke="none">
<path d="M544 5335 c-196 -44 -337 -281 -377 -636 -44 -383 40 -749 212 -920
88 -88 123 -100 316 -108 106 -4 141 -8 120 -14 -50 -14 -142 -75 -183 -122
-57 -65 -109 -171 -139 -283 -23 -86 -26 -117 -27 -267 0 -145 3 -183 22 -255
50 -190 142 -326 269 -393 37 -20 61 -37 53 -37 -123 -6 -181 -31 -253 -105
-82 -84 -163 -273 -206 -482 -35 -169 -53 -528 -36 -708 42 -437 164 -729 342
-817 l48 -23 2260 0 c2254 0 2260 0 2295 20 65 39 91 123 60 192 -16 36 -67
83 -90 83 -5 0 -10 5 -10 10 0 6 5 10 10 10 14 0 45 75 59 141 48 236 58 620
26 1043 -11 153 -55 309 -90 323 -10 3 -1 12 27 27 52 26 81 74 80 131 0 54
-14 82 -59 121 l-36 31 68 2 c79 2 132 26 160 74 21 35 37 107 24 107 -5 0 -8
3 -7 8 6 18 -46 81 -79 97 -36 17 -36 18 -15 26 28 10 68 93 82 169 6 29 16
60 23 68 10 13 9 14 -3 7 -12 -7 -13 -6 -4 6 14 17 16 229 2 229 -5 0 -4 10 3
21 6 12 7 19 1 15 -6 -3 -14 19 -21 55 -14 82 -54 167 -83 178 -22 8 -22 9 13
24 20 8 46 28 58 45 23 32 45 122 30 122 -5 0 -9 6 -9 14 0 23 -51 78 -87 92
-26 12 -277 14 -1442 14 -1241 0 -1410 2 -1415 15 -3 8 -11 14 -17 13 -6 -2
-14 4 -16 12 -3 11 -2 12 4 3 7 -9 16 -4 36 18 15 17 20 29 12 25 -18 -6 -19
-1 -5 24 8 15 6 21 -7 29 -10 6 -13 11 -6 11 7 0 10 7 7 18 -4 10 -2 13 3 7
12 -14 43 -18 43 -5 0 6 6 8 13 4 6 -4 8 -3 4 1 -12 14 -38 15 -31 2 5 -8 2
-8 -6 0 -8 7 -15 20 -16 29 -2 12 0 14 9 5 6 -6 20 -11 31 -10 12 0 15 3 9 6
-7 2 -13 9 -13 14 0 4 7 6 15 3 11 -5 13 -2 9 10 -3 9 -10 13 -15 10 -5 -3 -9
0 -9 5 0 16 11 13 32 -6 18 -16 18 -16 12 0 -3 10 -1 18 5 18 26 3 30 4 38 13
4 5 3 6 -4 2 -6 -3 -14 -2 -18 4 -3 5 -12 10 -18 10 -8 0 -8 -3 1 -9 11 -7 10
-9 -3 -14 -9 -4 -13 -3 -10 3 3 6 1 10 -4 10 -6 0 -11 4 -11 9 0 5 14 8 30 7
17 -1 30 1 30 4 0 4 469 6 1043 5 584 0 1050 3 1060 8 30 14 65 104 83 212 21
125 24 492 5 605 -24 141 -63 240 -93 240 -7 0 5 10 26 23 59 34 81 69 80 131
0 58 -23 99 -71 132 -27 18 -92 19 -2118 20 -1551 0 -2103 -2 -2141 -11z
m2002 -1537 c4 4 2 -1 -5 -10 -14 -19 -41 -24 -41 -8 0 5 8 6 18 3 15 -6 16
-5 2 13 -14 17 -13 18 1 7 9 -7 20 -9 25 -5z m-11 -47 c3 -5 0 -13 -6 -17 -7
-4 -9 -3 -5 4 3 5 0 13 -6 15 -9 4 -10 6 -1 6 6 1 14 -3 18 -8z m1473 -391
c-1 -18 4 -21 20 -9 13 10 12 8 -3 -10 l-20 -24 25 7 c24 6 24 6 5 -6 -24 -15
-28 -55 -5 -50 8 2 11 0 7 -4 -20 -21 -35 -11 -32 22 3 44 -12 35 -17 -11 -3
-27 0 -35 12 -35 9 0 5 -5 -10 -13 -15 -7 -25 -21 -25 -34 0 -12 -4 -25 -9
-30 -5 -4 -6 -3 -2 4 3 6 2 14 -3 17 -12 8 -8 30 9 51 16 19 23 78 9 69 -4 -2
-5 -12 -2 -22 6 -15 5 -16 -13 -2 -17 14 -18 13 -7 -1 7 -9 9 -19 5 -23 -4 -4
-7 -11 -8 -14 0 -4 -4 -15 -8 -24 -5 -10 -6 -25 -2 -33 3 -8 1 -15 -5 -15 -6
0 -7 -5 -4 -10 4 -6 3 -10 -2 -9 -22 4 -34 -2 -27 -13 5 -9 2 -9 -9 1 -11 9
-17 10 -17 2 0 -6 -5 -11 -12 -11 -9 0 -9 3 0 12 21 21 13 32 -10 12 -19 -15
-20 -16 -9 -1 15 19 2 24 -17 5 -7 -7 -12 -8 -12 -2 0 22 44 32 68 16 32 -21
53 -1 29 26 -9 10 -14 22 -10 27 5 4 2 5 -5 1 -7 -4 -10 -11 -7 -16 3 -4 -2
-10 -10 -14 -8 -3 -17 -1 -20 4 -4 6 0 10 7 11 7 0 3 5 -9 11 -28 13 -29 23
-5 38 14 10 14 11 0 6 -9 -2 -19 -2 -23 2 -4 4 -11 7 -17 7 -6 0 -12 8 -14 18
-2 15 4 19 26 19 3 0 14 9 25 20 l20 21 -22 -12 c-13 -6 -23 -9 -23 -5 0 3 -8
0 -17 -7 -16 -12 -17 -12 -6 2 7 9 9 20 5 25 -4 4 1 2 11 -5 10 -8 17 -9 17
-3 0 6 15 12 33 14 50 5 145 4 145 -2z m-186 -111 c-2 -7 5 -19 14 -26 14 -10
14 -13 3 -13 -12 0 -12 -2 1 -11 13 -9 12 -10 -2 -5 -11 3 -18 0 -18 -7 0 -8
-3 -7 -9 2 -5 8 -7 25 -5 38 2 12 0 24 -6 24 -25 3 -29 4 -34 10 -3 3 9 5 27
4 21 -2 31 -7 29 -16z m83 -69 c-3 -5 -13 -6 -21 -3 -12 4 -13 8 -3 14 15 9
32 2 24 -11z m-111 2 c3 -5 -1 -9 -9 -9 -8 0 -12 4 -9 9 3 4 7 8 9 8 2 0 6 -4
9 -8z m131 -51 c3 -5 2 -12 -3 -15 -5 -3 -9 1 -9 9 0 17 3 19 12 6z m176 -872
c13 -27 17 -29 22 -15 5 11 3 15 -5 10 -8 -5 -9 -2 -5 10 4 10 3 15 -3 11 -6
-3 -10 -1 -10 4 0 12 35 9 47 -4 5 -4 2 -5 -6 0 -9 5 -12 3 -9 -6 3 -8 1 -25
-4 -38 -8 -22 -6 -23 19 -17 19 5 23 4 14 -3 -8 -5 -15 -21 -17 -36 -2 -23 -1
-25 14 -13 15 11 15 10 0 -8 -21 -24 -23 -38 -5 -28 9 6 9 5 0 -8 -7 -8 -9
-19 -5 -23 4 -5 1 -4 -7 0 -11 6 -13 4 -8 -9 7 -16 4 -16 -27 2 -30 18 -35 18
-40 5 -6 -13 -9 -13 -34 2 l-27 16 24 -20 c26 -23 41 -27 41 -10 0 17 23 5 26
-14 1 -10 -2 -14 -9 -10 -6 4 -8 0 -5 -9 4 -8 1 -15 -7 -15 -7 0 -11 6 -8 14
3 7 0 13 -6 13 -6 0 -11 -4 -11 -10 0 -5 -5 -10 -11 -10 -8 0 -8 5 1 15 10 13
9 15 -8 15 -16 0 -20 -4 -15 -17 5 -15 3 -14 -10 2 -14 17 -16 18 -17 3 0 -9
-4 -20 -10 -23 -7 -4 -7 3 0 20 6 15 10 34 10 43 -1 13 -3 12 -13 -5 -11 -19
-14 -20 -31 -7 -27 20 -47 18 -39 -3 3 -10 3 -15 -1 -11 -4 3 -9 14 -10 23 -1
9 -9 21 -17 26 -22 14 -4 11 25 -5 15 -8 37 -11 49 -8 18 5 19 7 4 10 -10 2
-14 8 -10 15 4 7 -1 6 -10 -2 -15 -12 -20 -11 -41 8 -12 11 -26 18 -29 14 -4
-3 -7 -1 -7 5 0 7 4 12 9 12 12 0 3 94 -9 98 -33 12 5 19 108 21 l118 2 15
-32z m-243 -24 c-3 -3 -9 2 -12 12 -6 14 -5 15 5 6 7 -7 10 -15 7 -18z m-28
-15 c0 -5 -2 -10 -4 -10 -3 0 -8 5 -11 10 -3 6 -1 10 4 10 6 0 11 -4 11 -10z
m-3 -45 c0 -8 -4 -12 -9 -9 -5 3 -6 10 -3 15 9 13 12 11 12 -6z m358 -55 c3
-5 1 -10 -4 -10 -6 0 -11 5 -11 10 0 6 2 10 4 10 3 0 8 -4 11 -10z m-60 -60
c3 -5 1 -10 -4 -10 -6 0 -11 5 -11 10 0 6 2 10 4 10 3 0 8 -4 11 -10z m-2601
-520 c16 -16 30 -12 16 5 -9 10 -9 15 -1 15 6 0 11 -5 11 -11 0 -5 6 -7 13 -3
8 5 8 2 -2 -9 -16 -20 -1 -23 18 -4 11 10 11 8 1 -13 -12 -22 -12 -24 2 -12
13 10 12 -6 -7 -95 -23 -108 -34 -172 -35 -206 0 -12 -4 -16 -12 -11 -9 5 -9
2 1 -9 8 -10 9 -17 3 -17 -6 0 -9 -9 -7 -20 2 -11 0 -22 -5 -25 -5 -3 -7 3 -5
14 2 13 -1 18 -10 15 -7 -3 -16 -1 -20 5 -8 14 -25 14 -25 0 0 -5 5 -7 12 -3
7 5 8 3 3 -6 -5 -8 -4 -11 3 -6 15 9 23 -7 11 -24 -6 -10 -9 -11 -9 -2 0 6 -5
11 -11 10 -6 -2 -13 6 -16 17 -7 31 -4 264 3 320 4 28 8 59 10 70 1 11 3 21 3
22 3 5 46 -8 55 -17z"/>
<path d="M3982 3334 c-14 -16 -5 -18 17 -5 7 5 9 11 5 14 -5 3 -15 -1 -22 -9z"/>
<path d="M3866 3318 c3 -5 10 -6 15 -3 13 9 11 12 -6 12 -8 0 -12 -4 -9 -9z"/>
<path d="M3835 3311 c-3 -6 -10 -9 -15 -6 -4 3 -10 -1 -13 -8 -3 -7 3 -13 13
-13 10 0 16 4 14 8 -8 13 11 9 26 -4 12 -11 12 -10 0 7 -8 11 -15 21 -16 23
-1 2 -5 -2 -9 -7z"/>
<path d="M3875 3250 c-4 -6 -11 -7 -17 -4 -7 4 -8 2 -4 -5 6 -9 11 -9 22 0 14
11 18 19 10 19 -3 0 -8 -5 -11 -10z"/>
<path d="M3913 3245 c0 -8 4 -15 9 -15 4 0 8 4 8 9 0 6 -4 12 -8 15 -5 3 -9
-1 -9 -9z"/>
<path d="M3959 3223 c-13 -16 -12 -17 4 -4 9 7 17 15 17 17 0 8 -8 3 -21 -13z"/>
<path d="M3813 3215 c0 -8 4 -12 9 -9 5 3 6 10 3 15 -9 13 -12 11 -12 -6z"/>
<path d="M3875 2270 c3 -5 8 -10 11 -10 2 0 4 5 4 10 0 6 -5 10 -11 10 -5 0
-7 -4 -4 -10z"/>
<path d="M3880 2241 c0 -6 4 -13 10 -16 6 -3 7 1 4 9 -7 18 -14 21 -14 7z"/>
<path d="M4108 2197 c18 -11 20 -15 9 -27 -7 -8 -11 -14 -8 -13 2 2 11 -3 20
-10 14 -10 14 -10 3 5 -10 12 -10 18 -1 24 9 5 7 11 -6 21 -11 7 -24 13 -29
13 -6 -1 -1 -6 12 -13z"/>
<path d="M3884 2176 c3 -19 27 -48 34 -41 10 10 11 35 1 35 -5 0 -9 -5 -9 -11
0 -5 -4 -8 -10 -4 -5 3 -7 12 -3 20 3 8 1 15 -5 15 -6 0 -9 -6 -8 -14z"/>
<path d="M4119 2128 c15 -20 2 -25 -17 -6 -7 7 -12 9 -12 4 0 -4 6 -14 14 -21
12 -12 16 -12 25 -1 9 10 7 17 -6 27 -16 13 -17 12 -4 -3z"/>
<path d="M1491 1543 c-1 -7 -1 -16 -1 -20 0 -4 12 -8 27 -9 16 -1 20 0 10 3
-9 2 -14 9 -11 15 4 6 2 8 -4 4 -5 -3 -13 0 -15 6 -4 10 -6 10 -6 1z"/>
<path d="M1486 1178 c3 -4 9 -8 15 -8 5 0 9 4 9 8 0 5 -7 9 -15 9 -8 0 -12 -4
-9 -9z"/>
<path d="M2558 3813 c7 -3 16 -2 19 1 4 3 -2 6 -13 5 -11 0 -14 -3 -6 -6z"/>
<path d="M2554 3722 c4 -7 1 -12 -10 -12 -13 0 -14 -3 -4 -14 6 -8 19 -12 28
-9 10 4 12 8 4 11 -7 2 -10 8 -7 12 3 5 0 12 -6 16 -8 4 -9 3 -5 -4z"/>
</g>
</svg>
